<?xml version="1.0"?>
<svg xmlns="http://www.w3.org/2000/svg" id="Capa_1" enable-background="new 0 0 512 512" height="512px" viewBox="0 0 512 512" width="512px"><g><g><path d="m42.49 286.452h427.02c17.6 0 31.867-14.267 31.867-31.867 0-17.6-14.267-31.867-31.867-31.867h-427.02c-17.6 0-31.867 14.267-31.867 31.867-.001 17.6 14.267 31.867 31.867 31.867z" data-original="#000000" class="active-path" data-old_color="#000000" fill="#4760FF"/><path d="m287.867 153.983c-9.301 0-16.867 7.566-16.867 16.867v21.867h130.539v-21.867c0-9.301-7.566-16.867-16.867-16.867z" data-original="#000000" class="active-path" data-old_color="#000000" fill="#4760FF"/><path d="m80.46 170.851c0-25.843 21.024-46.867 46.867-46.867h96.805c12.298 0 23.498 4.768 31.867 12.544 8.369-7.776 19.569-12.544 31.867-12.544h96.805c25.843 0 46.867 21.024 46.867 46.867v21.867h48.689v-103.32c0-17.6-14.268-31.867-31.867-31.867h-384.721c-17.6 0-31.867 14.267-31.867 31.867v103.32h48.688z" data-original="#000000" class="active-path" data-old_color="#000000" fill="#4760FF"/><path d="m127.328 153.983c-9.301 0-16.867 7.566-16.867 16.867v21.867h130.539v-21.867c0-9.301-7.566-16.867-16.867-16.867z" data-original="#000000" class="active-path" data-old_color="#000000" fill="#4760FF"/><path d="m0 316.452v138.017h30v-54.697h452v54.697h30v-138.017z" data-original="#000000" class="active-path" data-old_color="#000000" fill="#4760FF"/></g></g> </svg>
