<?xml version="1.0"?>
<svg xmlns="http://www.w3.org/2000/svg" id="Capa_1" enable-background="new 0 0 512 512" height="512px" viewBox="0 0 512 512" width="512px"><g><g fill="rgb(0,0,0)"><path d="m208 166.889c3.839 0 7.678-1.464 10.606-4.394l8-8c5.858-5.858 5.858-15.355 0-21.213-5.857-5.858-15.355-5.858-21.213 0l-8 8c-9.477 9.478-2.635 25.607 10.607 25.607z" data-original="#000000" class="active-path" data-old_color="#000000" fill="#4760FF"/><path d="m272 174.889c3.839 0 7.678-1.464 10.606-4.394l8-8c5.858-5.858 5.858-15.355 0-21.213-5.857-5.858-15.355-5.858-21.213 0l-8 8c-9.477 9.478-2.635 25.607 10.607 25.607z" data-original="#000000" class="active-path" data-old_color="#000000" fill="#4760FF"/><path d="m208 230.889c3.839 0 7.678-1.464 10.606-4.394l8-8c5.858-5.858 5.858-15.355 0-21.213-5.857-5.858-15.355-5.858-21.213 0l-8 8c-9.477 9.478-2.635 25.607 10.607 25.607z" data-original="#000000" class="active-path" data-old_color="#000000" fill="#4760FF"/><path d="m15 294.889h482c8.284 0 15-6.716 15-15s-6.716-15-15-15h-18v-187.554c0-37.68-30.484-68.224-68.215-68.224-15.758 0-31.13 5.509-43.283 15.479l-9.421 7.729c-21.08-12.407-48.72-9.573-66.801 8.508l-22.627 22.627c-5.858 5.858-5.858 15.355 0 21.213l56.569 56.569c5.857 5.858 15.355 5.859 21.213 0 24.02-24.02 22.528-22.627 22.628-22.627 17.434-17.434 20.693-43.758 9.779-64.517l7.689-6.308c6.772-5.556 15.327-8.636 24.087-8.672 20.495-.184 38.382 16.479 38.382 38.223v187.555c-15.369 0-418.777 0-434 0-8.284 0-15 6.716-15 15s6.716 14.999 15 14.999z" data-original="#000000" class="active-path" data-old_color="#000000" fill="#4760FF"/><path d="m40.936 324.889 6.391 35.149c9.511 52.312 48.328 92.939 97.673 106.217v21.635c0 8.284 6.716 15 15 15s15-6.716 15-15v-17.104c4.682.177 157.857.156 162 0v17.104c0 8.284 6.716 15 15 15s15-6.716 15-15v-21.635c49.345-13.278 88.162-53.905 97.673-106.216l6.391-35.149h-430.128z" data-original="#000000" class="active-path" data-old_color="#000000" fill="#4760FF"/></g></g> </svg>
