<?xml version="1.0"?>
<svg xmlns="http://www.w3.org/2000/svg" xmlns:xlink="http://www.w3.org/1999/xlink" version="1.1" id="Capa_1" x="0px" y="0px" viewBox="0 0 512 512" style="enable-background:new 0 0 512 512;" xml:space="preserve" width="512px" height="512px"><g><g>
	<g>
		<path d="M402.488,62.729C363.379,22.277,311.355,0,256,0S148.621,22.277,109.512,62.729    C70.491,103.09,48.999,156.73,48.999,213.766s21.49,110.676,60.513,151.037l139.41,144.194c1.855,1.919,4.41,3.003,7.078,3.003    s5.223-1.084,7.078-3.002l65.975-68.24c3.78-3.91,3.675-10.143-0.235-13.922c-3.909-3.779-10.142-3.675-13.922,0.235L256,487.988    L123.67,351.117c-73.222-75.735-73.222-198.964,0-274.7C159.035,39.838,206.031,19.692,256,19.692s96.965,20.145,132.33,56.725    c73.222,75.735,73.222,198.965,0,274.7l-34.696,35.886c-3.78,3.91-3.675,10.143,0.235,13.922s10.143,3.676,13.922-0.235    l34.696-35.886c39.021-40.361,60.513-94,60.513-151.037S441.51,103.091,402.488,62.729z" data-original="#000000" class="active-path" data-old_color="#000000" fill="#BFCADA"/>
	</g>
</g><g>
	<g>
		<path d="M341.344,404.026c-5.438,0-9.846,4.408-9.846,9.846v0.016c0,5.438,4.408,9.838,9.846,9.838s9.846-4.416,9.846-9.854    S346.783,404.026,341.344,404.026z" data-original="#000000" class="active-path" data-old_color="#000000" fill="#BFCADA"/>
	</g>
</g><g>
	<g>
		<path d="M341.114,126.21C318.398,102.714,288.17,89.775,256,89.775s-62.398,12.94-85.114,36.435    c-46.678,48.279-46.678,126.834,0,175.114c22.716,23.495,52.944,36.435,85.114,36.435s62.398-12.94,85.114-36.435    C387.792,253.045,387.792,174.49,341.114,126.21z M326.956,287.637c-18.973,19.622-44.172,30.43-70.956,30.43    s-51.984-10.807-70.956-30.43c-39.381-40.732-39.381-107.007,0-147.739c18.973-19.623,44.172-30.431,70.956-30.431    s51.984,10.807,70.956,30.431C366.337,180.63,366.337,246.905,326.956,287.637z" data-original="#000000" class="active-path" data-old_color="#000000" fill="#BFCADA"/>
	</g>
</g></g> </svg>
